<svg width="13" height="12" viewBox="0 0 13 12" fill="none" xmlns="http://www.w3.org/2000/svg">
<g clip-path="url(#clip0_178_1022)">
<path d="M0.424886 2.23022C2.07184 3.62501 4.96173 6.07887 5.81111 6.84398C5.92513 6.94725 6.04743 6.99975 6.17439 6.99975C6.30109 6.99975 6.42318 6.94774 6.53694 6.84497C7.38704 6.0791 10.2769 3.62501 11.9239 2.23022C12.0265 2.14355 12.0421 1.9912 11.9591 1.88524C11.7672 1.64039 11.481 1.5 11.1744 1.5H1.17439C0.867762 1.5 0.581613 1.64039 0.38973 1.88527C0.306715 1.9912 0.322347 2.14355 0.424886 2.23022Z" fill="#8C1F2F"/>
<path d="M12.0298 3.46606C11.9412 3.42481 11.8369 3.4392 11.7632 3.5022C9.93676 5.05053 7.60571 7.03517 6.8723 7.69603C6.46067 8.06761 5.88938 8.06761 5.47679 7.69554C4.69505 6.9912 2.07737 4.76585 0.586414 3.50217C0.512188 3.43917 0.407703 3.42528 0.319812 3.46603C0.231453 3.50707 0.174805 3.59545 0.174805 3.69286V9.97997C0.174805 10.5315 0.623281 10.98 1.17481 10.98H11.1748C11.7263 10.98 12.1748 10.5315 12.1748 9.97997V3.69286C12.1748 3.59545 12.1182 3.50684 12.0298 3.46606Z" fill="#8C1F2F"/>
</g>
<defs>
<clipPath id="clip0_178_1022">
<rect width="12" height="12" fill="white" transform="translate(0.174805)"/>
</clipPath>
</defs>
</svg>
