<svg width="13" height="12" viewBox="0 0 13 12" fill="none" xmlns="http://www.w3.org/2000/svg">
<path d="M8.77492 8.3244L8.38423 8.91044C8.30625 9.02742 8.20311 9.12723 8.06719 9.16314C7.62197 9.28079 6.43999 9.33391 4.64045 7.53437C2.84091 5.73483 2.89402 4.55283 3.01166 4.10761C3.04758 3.97169 3.14739 3.86856 3.26436 3.79057L3.8504 3.39988C4.28672 3.109 4.40463 2.51949 4.11375 2.08316L3.00691 0.422911C2.75302 0.0420711 2.26356 -0.10343 1.84286 0.0768717L1.34356 0.290856C0.964262 0.453412 0.654861 0.745147 0.470313 1.11424C0.316129 1.42261 0.196626 1.74734 0.180434 2.09172C0.129409 3.17702 0.367385 5.85085 3.34568 8.82914C6.32398 11.8074 8.99779 12.0454 10.0831 11.9944C10.4275 11.9782 10.7522 11.8587 11.0606 11.7045C11.4297 11.5199 11.7214 11.2105 11.8839 10.8312L12.0979 10.3319C12.2782 9.91124 12.1327 9.42179 11.7519 9.16789L10.0916 8.06106C9.65532 7.77018 9.06581 7.88808 8.77492 8.3244Z" fill="#8C1F2F"/>
</svg>
