<svg width="44" height="44" viewBox="0 0 44 44" fill="none" xmlns="http://www.w3.org/2000/svg">
<g clip-path="url(#clip0_178_892)">
<path d="M38.1996 36.6678V43.7001H35.1329V36.6667C35.1329 36.1009 34.9082 35.5583 34.5081 35.1582C34.108 34.7581 33.5654 34.5334 32.9996 34.5334H32.0371H31.9315L31.8492 34.5996C29.0505 36.849 25.589 38.1143 21.9996 38.2C18.4119 38.1137 14.9524 36.8485 12.1556 34.5996L12.0733 34.5334H11.9676H10.9996C10.4338 34.5334 9.89119 34.7581 9.49112 35.1582C9.09104 35.5583 8.86628 36.1009 8.86628 36.6667V43.7001H5.79961V36.6674C5.80405 35.6794 6.08987 34.7131 6.62359 33.8817C7.15743 33.0501 7.91719 32.3878 8.81387 31.9724L9.17096 31.807L8.91685 31.5065C7.85198 30.2472 6.95948 28.8517 6.26287 27.3568L6.18816 27.1965L6.01171 27.1843C4.63981 27.0891 3.34002 26.5343 2.32216 25.6096C1.3043 24.6848 0.627756 23.4441 0.40174 22.0876C0.175724 20.7311 0.413423 19.338 1.07647 18.1332C1.73951 16.9284 2.78921 15.9821 4.05613 15.4473L4.20714 15.3835L4.23506 15.222C4.95831 11.0381 7.13841 7.24503 10.3895 4.51406C13.6406 1.7831 17.753 0.290355 21.9989 0.30005L22.0003 0.300047C26.2462 0.290355 30.3586 1.7831 33.6097 4.51406C36.8608 7.24503 39.0409 11.0381 39.7642 15.222L39.7922 15.3843L39.9443 15.4478C41.0565 15.9117 42.0066 16.6943 42.6749 17.6972C43.343 18.6999 43.6996 19.8778 43.6996 21.0827C43.6961 22.6333 43.1047 24.1248 42.0447 25.2565C40.9847 26.3881 39.535 27.0757 37.988 27.1806L37.8112 27.1926L37.7364 27.3531C37.0398 28.8477 36.1479 30.2432 35.0841 31.503L34.8304 31.8034L35.1871 31.9687C36.084 32.3846 36.8437 33.0475 37.3773 33.8798C37.9108 34.7121 38.1961 35.6792 38.1996 36.6678ZM25.9549 7.63338H29.0266C28.9516 9.38965 28.2211 11.0586 26.9729 12.3067C25.6539 13.6257 23.865 14.3667 21.9996 14.3667C20.1343 14.3667 18.3453 13.6257 17.0263 12.3067C15.7079 10.9883 14.9669 9.2003 14.9663 7.33582C14.9763 6.74045 15.0625 6.1488 15.2229 5.57533L15.4145 4.88991L14.79 5.23132C12.6743 6.38798 10.871 8.04087 9.53482 10.048C8.19866 12.0552 7.36963 14.3567 7.1189 16.7549L6.99953 17.8935L5.86962 18.091L5.86961 18.091L5.86274 18.0923C5.12404 18.2393 4.46584 18.6543 4.0149 19.2576C3.56396 19.8609 3.35219 20.6097 3.42035 21.3597C3.48852 22.1098 3.83181 22.8082 4.38411 23.3202C4.93641 23.8323 5.65865 24.122 6.41174 24.1333L6.41174 24.1336L6.42475 24.1333C6.59946 24.1283 6.77346 24.109 6.94497 24.0754L8.21389 23.8613L8.64323 25.0773L8.64324 25.0773C9.50555 27.5185 11.3772 30.0267 13.7542 31.9246C16.1314 33.8226 19.0435 35.1334 21.9996 35.1334C24.9557 35.1334 27.8682 33.8235 30.2456 31.9262C32.6229 30.029 34.4946 27.5212 35.356 25.079L35.356 25.079L35.7884 23.8524L36.8209 24.0354V24.0356L37.0667 24.0808C37.2348 24.1117 37.405 24.1292 37.5758 24.1333L37.5758 24.1335L37.5855 24.1334C38.3421 24.1268 39.0692 23.8393 39.6257 23.3266C40.1821 22.814 40.5281 22.1128 40.5966 21.3593C40.665 20.6059 40.4509 19.8538 39.9959 19.2493C39.541 18.6448 38.8775 18.231 38.1346 18.0883L38.1312 18.0876L36.9998 17.8838L36.8803 16.7439C36.4967 13.0672 34.7623 9.66368 32.0132 7.19238C29.2641 4.72117 25.6958 3.35796 21.9993 3.36671C21.9991 3.36671 21.999 3.36672 21.9989 3.36672L25.9549 7.63338Z" fill="#C19600" stroke="#F4F4F4" stroke-width="0.6"/>
<path d="M19.866 21.0854C19.866 22.4385 18.7691 23.5354 17.416 23.5354C16.0629 23.5354 14.966 22.4385 14.966 21.0854C14.966 19.7324 16.0629 18.6354 17.416 18.6354C18.7691 18.6354 19.866 19.7324 19.866 21.0854Z" fill="#C19600" stroke="#F4F4F4" stroke-width="0.6"/>
<path d="M29.034 21.0854C29.034 22.4385 27.9371 23.5354 26.584 23.5354C25.2309 23.5354 24.134 22.4385 24.134 21.0854C24.134 19.7324 25.2309 18.6354 26.584 18.6354C27.9371 18.6354 29.034 19.7324 29.034 21.0854Z" fill="#C19600" stroke="#F4F4F4" stroke-width="0.6"/>
</g>
<defs>
<clipPath id="clip0_178_892">
<rect width="44" height="44" fill="white"/>
</clipPath>
</defs>
</svg>
