<svg width="40" height="40" viewBox="0 0 40 40" fill="none" xmlns="http://www.w3.org/2000/svg">
<path d="M31.2632 26.9667H31.2628C30.1547 26.9634 29.0569 27.1801 28.033 27.604C27.0091 28.028 26.0796 28.6509 25.2981 29.4366L25.2975 29.4371L20.2981 34.4366C19.4978 35.2409 18.5461 35.8787 17.498 36.3129C16.4498 36.7472 15.3259 36.9694 14.1913 36.9667H5.20224H5.20206V36.6667L31.2632 26.9667ZM31.2632 26.9667C33.4994 26.9705 35.6428 27.8607 37.2237 29.4423C38.8046 31.0238 39.694 33.1676 39.697 35.4037M31.2632 26.9667L39.697 35.4037M22.442 36.5817L27.442 31.5817C28.1982 30.8276 29.1608 30.3144 30.2083 30.1069C31.2559 29.8993 32.3414 30.0068 33.328 30.4156C34.3145 30.8245 35.1579 31.5164 35.7515 32.4041C36.3452 33.2918 36.6626 34.3354 36.6637 35.4033V39.7H36.9637M22.442 36.5817L25.0854 29.225C25.8948 28.4112 26.8577 27.766 27.9182 27.3269C28.9788 26.8877 30.1159 26.6633 31.2637 26.6667C33.5793 26.6706 35.7988 27.5925 37.4359 29.2302C39.0729 30.8678 39.9939 33.0878 39.997 35.4033M22.442 36.5817C21.3612 37.6686 20.0755 38.5304 18.6594 39.1172C17.2433 39.7039 15.7249 40.004 14.192 40H5.20206C4.17321 40.0001 3.16745 39.695 2.31197 39.1235C1.45648 38.5519 0.789712 37.7395 0.395977 36.789C0.00224327 35.8385 -0.100768 34.7925 0.0999726 33.7834C0.300713 32.7744 0.796187 31.8475 1.52373 31.12M22.442 36.5817L1.52373 31.12M36.9637 39.7V40H39.697V39.7M36.9637 39.7H39.697M36.9637 39.7L39.697 35.4037M39.697 39.7H39.997V35.4033M39.697 39.7V35.4037M39.997 35.4033H39.697V35.4037M39.997 35.4033L39.697 35.4037M1.52373 31.12L6.83039 25.8083L12.7237 3.71167C13.0077 2.64682 13.6355 1.70562 14.5096 1.03439C15.3836 0.363165 16.455 -0.000476475 17.557 0L1.52373 31.12ZM31.9637 5.69333V4.96923L31.4516 5.48117L26.3099 10.6212L26.0978 10.8333L26.3099 11.0454L31.4515 16.1888L31.9637 16.7011V15.9767V5.69333ZM23.9515 8.69043L24.1636 8.9026L24.3758 8.6905L29.5225 3.5455L30.0348 3.03333H29.3104H19.0204H18.2963L18.8082 3.54543L23.9515 8.69043ZM30.1843 19.4249L30.6871 19.2908L30.3192 18.9229L24.3758 12.9795L24.1637 12.7674L23.9516 12.9796L13.6882 23.2446L12.8986 24.0343L13.9777 23.7465L30.1843 19.4249ZM16.0742 4.67617L15.7062 4.30832L15.5722 4.81105L11.2488 21.0277L10.9611 22.107L11.7509 21.3171L22.0209 11.0454L22.233 10.8333L22.0208 10.6212L16.0742 4.67617Z" fill="#C19600" stroke="#F4F4F4" stroke-width="0.6"/>
</svg>
