<svg width="44" height="44" viewBox="0 0 44 44" fill="none" xmlns="http://www.w3.org/2000/svg">
<g clip-path="url(#clip0_178_905)">
<path d="M38.2 34.7562V43.7013H35.1333V34.7558V34.7555C35.1318 33.2387 34.5286 31.7845 33.456 30.7119C32.3835 29.6394 30.9293 29.0362 29.4125 29.0346H29.4122L14.5878 29.0346L14.5875 29.0346C13.0707 29.0362 11.6165 29.6394 10.544 30.7119C9.47143 31.7845 8.8682 33.2387 8.86667 34.7555V34.7558V43.7013H5.8V34.756C5.80286 32.4261 6.72966 30.1925 8.37711 28.5451C10.0246 26.8976 12.2582 25.9708 14.588 25.968H29.412C31.7418 25.9708 33.9754 26.8976 35.6229 28.5451C37.2704 30.1926 38.1972 32.4263 38.2 34.7562Z" fill="#C19600" stroke="#F4F4F4" stroke-width="0.6"/>
<path d="M21.9997 21.7C19.8836 21.6999 17.8149 21.0724 16.0554 19.8967C14.2958 18.721 12.9244 17.0499 12.1145 15.0947C11.3046 13.1395 11.0927 10.9881 11.5056 8.91254C11.9185 6.83694 12.9375 4.93038 14.434 3.43396C15.9304 1.93754 17.8369 0.918464 19.9125 0.505602C21.9881 0.0927406 24.1396 0.304636 26.0947 1.11449C28.0499 1.92435 29.721 3.2958 30.8967 5.0554C32.0724 6.81493 32.6999 8.88355 32.7 10.9997C32.6972 13.8367 31.5689 16.5568 29.5628 18.5628C27.5568 20.5689 24.8367 21.6972 21.9997 21.7ZM22 3.36667C20.4903 3.36667 19.0144 3.81436 17.7592 4.65312C16.5039 5.49188 15.5255 6.68405 14.9477 8.07886C14.37 9.47367 14.2188 11.0085 14.5133 12.4892C14.8079 13.9699 15.5349 15.33 16.6024 16.3976C17.67 17.4651 19.0301 18.1921 20.5108 18.4867C21.9915 18.7812 23.5263 18.63 24.9212 18.0523C26.316 17.4745 27.5081 16.4962 28.3469 15.2409C29.1857 13.9856 29.6333 12.5097 29.6333 11C29.6333 8.97552 28.8291 7.03395 27.3976 5.60242C25.9661 4.1709 24.0245 3.36667 22 3.36667Z" fill="#C19600" stroke="#F4F4F4" stroke-width="0.6"/>
</g>
<defs>
<clipPath id="clip0_178_905">
<rect width="44" height="44" fill="white"/>
</clipPath>
</defs>
</svg>
