<svg width="44" height="44" viewBox="0 0 44 44" fill="none" xmlns="http://www.w3.org/2000/svg">
<g clip-path="url(#clip0_178_896)">
<path d="M9.70146 17.7297L9.70147 17.7297C9.91065 19.7286 9.55694 21.5835 8.83013 22.9634C8.10223 24.3452 7.02049 25.2201 5.77599 25.3495L5.77561 25.3496C5.6686 25.3608 5.56115 25.3664 5.45388 25.3662H5.45323C4.26944 25.3662 3.10261 24.6837 2.16838 23.489C1.23618 22.297 0.558154 20.6195 0.357919 18.7051C-0.0575483 14.6947 1.85233 12.1673 4.36923 11.9084L4.36977 11.9084C4.5127 11.8934 4.65633 11.8861 4.8002 11.8862L4.9769 11.8864C7.25587 11.9872 9.31563 14.041 9.70146 17.7297ZM5.23083 22.2072L5.46901 22.4073L5.66037 22.162C6.58651 20.9749 6.78259 19.4698 6.65208 18.0505L6.6521 18.0505L6.65171 18.0467C6.5557 17.1286 6.31196 16.3781 5.99738 15.8476C5.69579 15.339 5.27596 14.9514 4.80088 14.9514V14.9514L4.79579 14.9515L4.71475 14.9529L4.70182 14.9531L4.68896 14.9544C4.68519 14.9548 4.68068 14.9552 4.67547 14.9557C4.61833 14.9608 4.47762 14.9736 4.32285 15.0526C4.1497 15.1411 3.98149 15.2981 3.84264 15.5593L3.84256 15.5593L3.8392 15.566C3.40511 16.4341 3.40558 17.3882 3.40601 18.272C3.40602 18.2997 3.40603 18.3273 3.40603 18.3548V18.3682L3.40723 18.3816C3.54297 19.8962 4.08231 21.242 5.23083 22.2072Z" fill="#C19600" stroke="#F4F4F4" stroke-width="0.6"/>
<path d="M15.8807 15.1731L15.8732 15.1739L15.8658 15.175C15.7622 15.1911 15.6569 15.1917 15.5231 15.1917C14.2074 15.1917 12.9163 14.434 11.8857 13.1152C10.857 11.799 10.1101 9.94815 9.88887 7.83742C9.42765 3.41705 11.5369 0.615847 14.3313 0.325901L14.3326 0.325753C14.4899 0.308705 14.6481 0.300166 14.8065 0.3C17.4094 0.300091 19.7901 2.58908 20.2261 6.75771C20.4564 8.96367 20.0651 11.0102 19.2618 12.5335C18.4573 14.0589 17.26 15.0291 15.8807 15.1731ZM14.6593 3.36728L14.6509 3.36781L14.6424 3.36881C14.1385 3.42897 13.698 3.73646 13.4676 4.1884C12.9258 5.21064 12.7401 6.38423 12.9398 7.52373C13.0953 8.98841 13.564 10.1147 14.0642 10.8816C14.3144 11.2652 14.5751 11.5631 14.8129 11.7688C14.9316 11.8715 15.0491 11.9552 15.161 12.0148C15.2673 12.0713 15.3936 12.1196 15.5232 12.1196H15.5382L15.5532 12.1181C15.6495 12.1084 15.7374 12.06 15.7958 12.0225C15.8659 11.9775 15.943 11.9155 16.0235 11.836C16.1852 11.6765 16.3701 11.4377 16.5493 11.0979L16.5528 11.0913L16.556 11.0845C17.1388 9.83306 17.3537 8.44174 17.176 7.07275C17.0529 5.91078 16.7365 5.00231 16.3221 4.37493C15.9151 3.75878 15.3804 3.37099 14.8157 3.36673C14.7636 3.36385 14.7114 3.36403 14.6593 3.36728Z" fill="#C19600" stroke="#F4F4F4" stroke-width="0.6"/>
<path d="M34.1919 7.83757L34.1919 7.83756C34.6532 3.41699 32.5438 0.615812 29.7531 0.325894L29.7519 0.325768C29.5938 0.308699 29.4351 0.300086 29.2763 0.3L34.1919 7.83757ZM34.1919 7.83757C33.9715 9.94999 33.2238 11.8007 32.1945 13.1165C31.1631 14.4348 29.8716 15.1917 28.5576 15.1917C28.4408 15.1917 28.3208 15.185 28.1989 15.173M34.1919 7.83757L28.1989 15.173M28.1989 15.173C26.8202 15.0304 25.6233 14.0605 24.8189 12.5348C24.0156 11.0111 23.6243 8.96364 23.8546 6.75765C24.2907 2.58914 26.6713 0.300089 29.2761 0.3L28.1989 15.173ZM29.4381 3.36878L29.4302 3.36785L29.4223 3.36733C29.3704 3.36395 29.3184 3.36375 29.2665 3.36673C28.6989 3.37114 28.1633 3.75823 27.7563 4.37478C27.3422 5.0021 27.0278 5.91017 26.9066 7.07093C26.7274 8.43976 26.9419 9.83132 27.5248 11.0828L27.528 11.0895L27.5314 11.0961C27.7103 11.4352 27.8947 11.6758 28.0547 11.8361C28.1343 11.9158 28.2109 11.9787 28.281 12.024C28.3159 12.0466 28.3531 12.0673 28.3914 12.0834C28.424 12.097 28.4815 12.1178 28.5503 12.1178C28.68 12.1178 28.8066 12.0701 28.914 12.0134C29.0268 11.9539 29.145 11.8703 29.2644 11.7675C29.5036 11.5617 29.7654 11.2637 30.0162 10.8801C30.5176 10.1131 30.9864 8.98666 31.141 7.5221C31.3428 6.38235 31.1569 5.20792 30.613 4.18613C30.382 3.73505 29.9415 3.42841 29.4381 3.36878Z" fill="#C19600" stroke="#F4F4F4" stroke-width="0.6"/>
<path d="M5.79064 37.3546L5.79085 37.3546L5.79086 37.3434C5.79625 33.1014 7.80121 28.8785 10.8442 25.7121C13.8878 22.5451 17.939 20.4665 22.0019 20.4665C26.0647 20.4665 30.1159 22.5451 33.1581 25.7121C36.1997 28.8784 38.2019 33.1011 38.2019 37.343C38.2019 38.8332 37.9272 40.4223 37.0405 41.6326C36.1673 42.8244 34.664 43.6982 32.0924 43.6998C30.6246 43.6293 29.1739 43.3552 27.7817 42.8852C24.0307 41.6063 19.9616 41.6063 16.2107 42.8854L16.2107 42.8853L16.2065 42.8868C13.2271 43.9522 10.5576 43.9429 8.68001 42.9987C6.82557 42.0661 5.68076 40.1896 5.79064 37.3546ZM21.9549 38.7961L22.0015 38.8035L22.0481 38.7962C23.0193 38.6449 24.3118 38.8718 25.7445 39.2294C26.2939 39.3665 26.8664 39.5236 27.4421 39.6816C28.3345 39.9265 29.2346 40.1736 30.0685 40.3515C31.4363 40.6433 32.7492 40.7814 33.7034 40.3868C34.1962 40.183 34.5917 39.8384 34.8431 39.3185C35.0896 38.809 35.1876 38.1524 35.1352 37.3332C35.132 33.8972 33.4714 30.4531 31.0196 27.8721C28.5665 25.2898 25.2844 23.5332 22.0019 23.5332C18.7194 23.5332 15.4372 25.2898 12.9842 27.8721C10.5323 30.4531 8.87167 33.8972 8.86856 37.3333C8.81664 38.1533 8.91534 38.8104 9.16268 39.3201C9.41499 39.8402 9.81142 40.1847 10.305 40.3882C11.2609 40.7823 12.5755 40.6434 13.9443 40.3508C14.7783 40.1725 15.6782 39.9252 16.57 39.6801C17.1461 39.5217 17.7189 39.3643 18.2683 39.227C19.7 38.8693 20.9893 38.6432 21.9549 38.7961Z" fill="#C19600" stroke="#F4F4F4" stroke-width="0.6"/>
<path d="M40.2107 13.8451L40.3845 13.8866C42.5778 14.5113 44.1072 16.9846 43.6316 20.6617L43.6316 20.6618C43.374 22.655 42.6018 24.3783 41.5763 25.5532C40.5492 26.7298 39.2948 27.3314 38.054 27.1702L38.0533 27.1701C37.9468 27.1565 37.8412 27.1372 37.7366 27.1122L37.736 27.112C36.5842 26.8389 35.6063 25.9056 34.9729 24.5276C34.3409 23.1527 34.0682 21.364 34.3151 19.4551C34.8361 15.4571 37.2776 13.4385 39.7863 13.7673L39.7867 13.7674C39.9295 13.7859 40.071 13.8118 40.2107 13.8451ZM40.5905 20.2704L40.5905 20.2704L40.591 20.2667C40.7094 19.3512 40.6454 18.5647 40.4617 17.9759C40.2856 17.4115 39.9665 16.9375 39.5041 16.828L39.5042 16.8279L39.4995 16.8269L39.4204 16.8095L39.4076 16.8067L39.3947 16.805C39.3909 16.8045 39.3864 16.8038 39.3813 16.8031C39.3244 16.7949 39.1846 16.7748 39.0157 16.8161C38.8268 16.8622 38.6269 16.9762 38.4316 17.1983L38.4315 17.1982L38.4267 17.204C37.8041 17.9485 37.5843 18.877 37.3808 19.737C37.3745 19.7639 37.3681 19.7908 37.3617 19.8176L37.3586 19.8307L37.3567 19.8439C37.1395 21.349 37.3537 22.7828 38.2485 23.987L38.4341 24.2367L38.6769 24.0422C39.852 23.1008 40.39 21.6814 40.5905 20.2704ZM34.0176 19.4165C33.511 23.3323 35.1283 26.802 37.6668 27.4039L34.0176 19.4165Z" fill="#C19600" stroke="#F4F4F4" stroke-width="0.6"/>
</g>
<defs>
<clipPath id="clip0_178_896">
<rect width="44" height="44" fill="white"/>
</clipPath>
</defs>
</svg>
