<svg width="38" height="38" viewBox="0 0 38 38" fill="none" xmlns="http://www.w3.org/2000/svg">
<path d="M28.4446 21.9167H28.2375L28.199 22.1201L26.4373 31.4167H5.22937L0.348538 5.68192L0.348556 5.68191L0.347965 5.67899C0.215662 5.02419 0.229765 4.34823 0.389266 3.69951C0.548767 3.0508 0.84972 2.44537 1.27058 1.92658C1.69144 1.40778 2.22179 0.988447 2.82367 0.698601C3.42524 0.408902 4.0834 0.255719 4.75106 0.25H26.9167C27.5908 0.250016 28.2563 0.401495 28.8641 0.693248C29.4718 0.985001 30.0062 1.40957 30.4278 1.93559L30.6229 1.77924L30.4278 1.93559C30.8495 2.46161 31.1475 3.07564 31.3 3.73231C31.4524 4.38899 31.4554 5.07152 31.3087 5.7295L31.3085 5.72947L31.3071 5.73725L31.1867 6.37059L31.1356 6.63954L31.4081 6.66607C33.4346 6.86344 35.0185 7.5139 36.093 8.52905C37.1632 9.5402 37.75 10.9335 37.75 12.6667C37.75 14.8022 36.9068 17.124 35.5158 18.9101C34.1247 20.6965 32.2114 21.9167 30.0833 21.9167H28.4446ZM28.3476 3.60515L28.3468 3.60417C28.1752 3.38978 27.9576 3.2167 27.7101 3.0977C27.4625 2.97871 27.1915 2.91684 26.9168 2.91667H26.9167L4.75 2.91666L4.7483 2.91667C4.4747 2.91853 4.20495 2.98129 3.95863 3.10039C3.71231 3.21949 3.4956 3.39194 3.32423 3.60523C3.15286 3.81852 3.03114 4.06729 2.96789 4.33349C2.90488 4.59872 2.9015 4.87462 2.95798 5.1413L7.39872 28.5466L7.43731 28.75H7.64433H24.0223H24.2294L24.268 28.5466L28.6953 5.19757C28.7622 4.92443 28.7661 4.63961 28.7066 4.36469C28.6466 4.08738 28.5238 3.82753 28.3476 3.60515ZM30.857 9.27422L30.6371 9.26078L30.5961 9.47721L28.8006 18.9535L28.7444 19.25H29.0462H30.0833C31.4263 19.25 32.6791 18.2788 33.5793 17.0151C34.4851 15.7434 35.0833 14.1104 35.0833 12.6667V12.6593C35.0834 12.2839 35.0834 11.4887 34.5341 10.759C33.9756 10.0171 32.8954 9.39873 30.857 9.27422ZM0.25 35.0833H31.4167V37.75H0.25V35.0833Z" fill="#C19600" stroke="#F4F4F4" stroke-width="0.5"/>
</svg>
