<svg width="49" height="56" viewBox="0 0 49 56" fill="none" xmlns="http://www.w3.org/2000/svg">
<g clip-path="url(#clip0_320_1260)">
<path d="M47.806 15.624H23.499C20.595 15.624 18.23 17.985 18.23 20.893V37.482C18.23 40.386 20.594 42.753 23.499 42.753H47.805V37.1H29.944C26.692 37.1 24.673 34.609 24.673 30.599V27.559C24.673 23.549 26.692 21.06 29.944 21.06H47.805V15.624H47.806ZM16.998 37.481V20.892C16.998 17.306 19.914 14.39 23.5 14.39H47.979C48.146 14.39 48.307 14.401 48.471 14.413L49.039 14.458V22.289H29.944C26.299 22.289 25.906 25.974 25.906 27.558V30.598C25.906 32.182 26.299 35.869 29.944 35.869H49.038V43.917L48.467 43.959C48.292 43.97 48.136 43.982 47.978 43.982H23.499C19.914 43.983 16.998 41.067 16.998 37.481Z" fill="#C49C0F"/>
<path d="M11.5 37.4999L11.5 41.4999L12.5 41.4999C13.6046 41.4999 14.5 40.6045 14.5 39.4999C14.5 38.3954 13.6046 37.4999 12.5 37.4999L11.5 37.4999Z" stroke="#C49C0F"/>
<path d="M11.5 30.4999L11.5 34.4999L12.5 34.4999C13.6046 34.4999 14.5 33.6045 14.5 32.4999C14.5 31.3954 13.6046 30.4999 12.5 30.4999L11.5 30.4999Z" stroke="#C49C0F"/>
<path d="M11.5 23.4999L11.5 27.4999L12.5 27.4999C13.6046 27.4999 14.5 26.6045 14.5 25.4999C14.5 24.3954 13.6046 23.4999 12.5 23.4999L11.5 23.4999Z" stroke="#C49C0F"/>
<path d="M11.5 16.4999L11.5 20.4999L12.5 20.4999C13.6046 20.4999 14.5 19.6045 14.5 18.4999C14.5 17.3954 13.6046 16.4999 12.5 16.4999L11.5 16.4999Z" stroke="#C49C0F"/>
<path d="M40.5 9.49994L36.5 9.49994L36.5 10.4999C36.5 11.6045 37.3954 12.4999 38.5 12.4999C39.6046 12.4999 40.5 11.6045 40.5 10.4999L40.5 9.49994Z" stroke="#C49C0F"/>
<path d="M47.5 9.49994L43.5 9.49994L43.5 10.4999C43.5 11.6045 44.3954 12.4999 45.5 12.4999C46.6046 12.4999 47.5 11.6045 47.5 10.4999L47.5 9.49994Z" stroke="#C49C0F"/>
<path d="M24.5 9.49994L20.5 9.49994L20.5 10.4999C20.5 11.6045 21.3954 12.4999 22.5 12.4999C23.6046 12.4999 24.5 11.6045 24.5 10.4999L24.5 9.49994Z" stroke="#C49C0F"/>
<path d="M31.5 9.49994L27.5 9.49994L27.5 10.4999C27.5 11.6045 28.3954 12.4999 29.5 12.4999C30.6046 12.4999 31.5 11.6045 31.5 10.4999L31.5 9.49994Z" stroke="#C49C0F"/>
<path d="M40.5 48.4999L36.5 48.4999L36.5 47.4999C36.5 46.3954 37.3954 45.4999 38.5 45.4999C39.6046 45.4999 40.5 46.3954 40.5 47.4999L40.5 48.4999Z" stroke="#C49C0F"/>
<path d="M47.5 48.4999L43.5 48.4999L43.5 47.4999C43.5 46.3954 44.3954 45.4999 45.5 45.4999C46.6046 45.4999 47.5 46.3954 47.5 47.4999L47.5 48.4999Z" stroke="#C49C0F"/>
<path d="M24.5 48.4999L20.5 48.4999L20.5 47.4999C20.5 46.3954 21.3954 45.4999 22.5 45.4999C23.6046 45.4999 24.5 46.3954 24.5 47.4999L24.5 48.4999Z" stroke="#C49C0F"/>
<path d="M31.5 48.4999L27.5 48.4999L27.5 47.4999C27.5 46.3954 28.3954 45.4999 29.5 45.4999C30.6046 45.4999 31.5 46.3954 31.5 47.4999L31.5 48.4999Z" stroke="#C49C0F"/>
</g>
<defs>
<clipPath id="clip0_320_1260">
<rect width="49" height="56" fill="white"/>
</clipPath>
</defs>
</svg>
