<svg width="44" height="56" viewBox="0 0 44 56" fill="none" xmlns="http://www.w3.org/2000/svg">
<g clip-path="url(#clip0_320_1275)">
<path d="M42.7849 11.7949C42.7849 11.1559 42.2649 10.6359 41.6259 10.6359H32.9889C32.3499 10.6359 31.8299 11.1559 31.8299 11.7949V44.2039C31.8299 44.8429 32.3499 45.3629 32.9889 45.3629H41.6259C42.2649 45.3629 42.7849 44.8429 42.7849 44.2039V11.7949ZM30.4219 44.2039V11.7949C30.4219 10.3779 31.5729 9.22693 32.9899 9.22693H41.6269C43.0439 9.22693 44.1979 10.3779 44.1979 11.7949V44.2039C44.1979 45.6209 43.0439 46.7719 41.6269 46.7719H32.9899C31.5729 46.7719 30.4219 45.6209 30.4219 44.2039Z" fill="#C49C0F"/>
<path d="M0.5 36.4999L0.5 40.4999L1.5 40.4999C2.60457 40.4999 3.5 39.6045 3.5 38.4999C3.5 37.3954 2.60457 36.4999 1.5 36.4999L0.5 36.4999Z" stroke="#C49C0F"/>
<path d="M0.5 29.4999L0.5 33.4999L1.5 33.4999C2.60457 33.4999 3.5 32.6045 3.5 31.4999C3.5 30.3954 2.60457 29.4999 1.5 29.4999L0.5 29.4999Z" stroke="#C49C0F"/>
<path d="M0.5 22.4999L0.5 26.4999L1.5 26.4999C2.60457 26.4999 3.5 25.6045 3.5 24.4999C3.5 23.3954 2.60457 22.4999 1.5 22.4999L0.5 22.4999Z" stroke="#C49C0F"/>
<path d="M0.5 15.4999L0.5 19.4999L1.5 19.4999C2.60457 19.4999 3.5 18.6045 3.5 17.4999C3.5 16.3954 2.60457 15.4999 1.5 15.4999L0.5 15.4999Z" stroke="#C49C0F"/>
<path d="M6.5 36.4999L6.5 40.4999L7.5 40.4999C8.60457 40.4999 9.5 39.6045 9.5 38.4999C9.5 37.3954 8.60457 36.4999 7.5 36.4999L6.5 36.4999Z" stroke="#C49C0F"/>
<path d="M6.5 29.4999L6.5 33.4999L7.5 33.4999C8.60457 33.4999 9.5 32.6045 9.5 31.4999C9.5 30.3954 8.60457 29.4999 7.5 29.4999L6.5 29.4999Z" stroke="#C49C0F"/>
<path d="M6.5 22.4999L6.5 26.4999L7.5 26.4999C8.60457 26.4999 9.5 25.6045 9.5 24.4999C9.5 23.3954 8.60457 22.4999 7.5 22.4999L6.5 22.4999Z" stroke="#C49C0F"/>
<path d="M6.5 15.4999L6.5 19.4999L7.5 19.4999C8.60457 19.4999 9.5 18.6045 9.5 17.4999C9.5 16.3954 8.60457 15.4999 7.5 15.4999L6.5 15.4999Z" stroke="#C49C0F"/>
<path d="M16.5 36.4999L16.5 40.4999L17.5 40.4999C18.6046 40.4999 19.5 39.6045 19.5 38.4999C19.5 37.3954 18.6046 36.4999 17.5 36.4999L16.5 36.4999Z" stroke="#C49C0F"/>
<path d="M16.5 29.4999L16.5 33.4999L17.5 33.4999C18.6046 33.4999 19.5 32.6045 19.5 31.4999C19.5 30.3954 18.6046 29.4999 17.5 29.4999L16.5 29.4999Z" stroke="#C49C0F"/>
<path d="M16.5 22.4999L16.5 26.4999L17.5 26.4999C18.6046 26.4999 19.5 25.6045 19.5 24.4999C19.5 23.3954 18.6046 22.4999 17.5 22.4999L16.5 22.4999Z" stroke="#C49C0F"/>
<path d="M16.5 15.4999L16.5 19.4999L17.5 19.4999C18.6046 19.4999 19.5 18.6045 19.5 17.4999C19.5 16.3954 18.6046 15.4999 17.5 15.4999L16.5 15.4999Z" stroke="#C49C0F"/>
<path d="M22.5 36.4999L22.5 40.4999L23.5 40.4999C24.6046 40.4999 25.5 39.6045 25.5 38.4999C25.5 37.3954 24.6046 36.4999 23.5 36.4999L22.5 36.4999Z" stroke="#C49C0F"/>
<path d="M22.5 29.4999L22.5 33.4999L23.5 33.4999C24.6046 33.4999 25.5 32.6045 25.5 31.4999C25.5 30.3954 24.6046 29.4999 23.5 29.4999L22.5 29.4999Z" stroke="#C49C0F"/>
<path d="M22.5 22.4999L22.5 26.4999L23.5 26.4999C24.6046 26.4999 25.5 25.6045 25.5 24.4999C25.5 23.3954 24.6046 22.4999 23.5 22.4999L22.5 22.4999Z" stroke="#C49C0F"/>
<path d="M22.5 15.4999L22.5 19.4999L23.5 19.4999C24.6046 19.4999 25.5 18.6045 25.5 17.4999C25.5 16.3954 24.6046 15.4999 23.5 15.4999L22.5 15.4999Z" stroke="#C49C0F"/>
</g>
<defs>
<clipPath id="clip0_320_1275">
<rect width="44" height="56" fill="white"/>
</clipPath>
</defs>
</svg>
