<svg width="49" height="56" viewBox="0 0 49 56" fill="none" xmlns="http://www.w3.org/2000/svg">
<path d="M47.3108 12.2549C47.3108 11.6359 46.8048 11.1289 46.1848 11.1289H37.7918C37.1698 11.1289 36.6658 11.6349 36.6658 12.2549V43.7439C36.6658 44.3659 37.1688 44.8719 37.7918 44.8719H46.1848C46.8038 44.8719 47.3108 44.3659 47.3108 43.7439V12.2549ZM37.7928 9.76093H46.1858C47.5598 9.76093 48.6798 10.8809 48.6798 12.2549V43.7439C48.6798 45.1209 47.5598 46.2409 46.1858 46.2409H37.7928C36.4188 46.2409 35.2988 45.1209 35.2988 43.7439V12.2549C35.2978 10.8809 36.4178 9.76093 37.7928 9.76093Z" fill="#C49C0F"/>
<path d="M30.4846 33.0989C30.4846 32.7089 30.1646 32.3889 29.7716 32.3889H24.5566C24.1636 32.3889 23.8466 32.7089 23.8466 33.0989V43.1919C23.8466 43.5849 24.1636 43.9049 24.5566 43.9049H29.7716C30.1646 43.9049 30.4846 43.5849 30.4846 43.1919V33.0989ZM24.5576 31.0209H29.7726C30.9206 31.0209 31.8536 31.9539 31.8536 33.0999V43.1929C31.8536 44.3409 30.9206 45.2739 29.7726 45.2739H24.5576C23.4096 45.2739 22.4766 44.3409 22.4766 43.1929V33.0989C22.4756 31.9539 23.4086 31.0209 24.5576 31.0209Z" fill="#C49C0F"/>
<path d="M30.5851 13.2419C30.5851 12.8519 30.2651 12.5319 29.8721 12.5319H24.6571C24.2671 12.5319 23.9471 12.8519 23.9471 13.2419V23.3349C23.9471 23.7279 24.2671 24.0479 24.6571 24.0479H29.8721C30.2651 24.0479 30.5851 23.7279 30.5851 23.3349V13.2419ZM24.6571 11.1629H29.8721C31.0201 11.1629 31.9531 12.0959 31.9531 13.2419V23.3349C31.9531 24.4829 31.0201 25.4159 29.8721 25.4159H24.6571C23.5121 25.4159 22.5781 24.4829 22.5781 23.3349V13.2419C22.5791 12.0959 23.5121 11.1629 24.6571 11.1629Z" fill="#C49C0F"/>
<path d="M14.3039 33.1839C14.3039 32.7939 13.9869 32.4739 13.5939 32.4739H8.37885C7.98585 32.4739 7.66885 32.7939 7.66885 33.1839V43.2769C7.66885 43.6699 7.98585 43.9899 8.37885 43.9899H13.5939C13.9869 43.9899 14.3039 43.6699 14.3039 43.2769V33.1839ZM8.37885 31.1049H13.5939C14.7419 31.1049 15.6729 32.0379 15.6729 33.1839V43.2769C15.6729 44.4249 14.7429 45.3579 13.5939 45.3579H8.37885C7.23085 45.3579 6.29785 44.4249 6.29785 43.2769V33.1839C6.29785 32.0389 7.23085 31.1049 8.37885 31.1049Z" fill="#C49C0F"/>
<path d="M14.4074 13.3259C14.4074 12.9359 14.0874 12.6159 13.6944 12.6159H8.47939C8.08639 12.6159 7.76939 12.9359 7.76939 13.3259V23.4189C7.76939 23.8119 8.08639 24.1319 8.47939 24.1319H13.6944C14.0874 24.1319 14.4074 23.8119 14.4074 23.4189V13.3259ZM8.47939 11.2479H13.6944C14.8424 11.2479 15.7754 12.1809 15.7754 13.3269V23.4199C15.7754 24.5679 14.8424 25.5009 13.6944 25.5009H8.47939C7.33439 25.5009 6.40039 24.5679 6.40039 23.4199V13.3259C6.40139 12.1809 7.33439 11.2479 8.47939 11.2479Z" fill="#C49C0F"/>
<path d="M2.5 39.4999L2.5 43.4999L3.5 43.4999C4.60457 43.4999 5.5 42.6045 5.5 41.4999C5.5 40.3954 4.60457 39.4999 3.5 39.4999L2.5 39.4999Z" stroke="#C49C0F"/>
<path d="M2.5 32.4999L2.5 36.4999L3.5 36.4999C4.60457 36.4999 5.5 35.6045 5.5 34.4999C5.5 33.3954 4.60457 32.4999 3.5 32.4999L2.5 32.4999Z" stroke="#C49C0F"/>
<path d="M2.5 19.4999L2.5 23.4999L3.5 23.4999C4.60457 23.4999 5.5 22.6045 5.5 21.4999C5.5 20.3954 4.60457 19.4999 3.5 19.4999L2.5 19.4999Z" stroke="#C49C0F"/>
<path d="M2.5 12.4999L2.5 16.4999L3.5 16.4999C4.60457 16.4999 5.5 15.6045 5.5 14.4999C5.5 13.3954 4.60457 12.4999 3.5 12.4999L2.5 12.4999Z" stroke="#C49C0F"/>
<path d="M18.5 39.4999L18.5 43.4999L19.5 43.4999C20.6046 43.4999 21.5 42.6045 21.5 41.4999C21.5 40.3954 20.6046 39.4999 19.5 39.4999L18.5 39.4999Z" stroke="#C49C0F"/>
<path d="M18.5 32.4999L18.5 36.4999L19.5 36.4999C20.6046 36.4999 21.5 35.6045 21.5 34.4999C21.5 33.3954 20.6046 32.4999 19.5 32.4999L18.5 32.4999Z" stroke="#C49C0F"/>
<path d="M18.5 19.4999L18.5 23.4999L19.5 23.4999C20.6046 23.4999 21.5 22.6045 21.5 21.4999C21.5 20.3954 20.6046 19.4999 19.5 19.4999L18.5 19.4999Z" stroke="#C49C0F"/>
<path d="M18.5 12.4999L18.5 16.4999L19.5 16.4999C20.6046 16.4999 21.5 15.6045 21.5 14.4999C21.5 13.3954 20.6046 12.4999 19.5 12.4999L18.5 12.4999Z" stroke="#C49C0F"/>
</svg>
