<svg width="40" height="40" viewBox="0 0 40 40" fill="none" xmlns="http://www.w3.org/2000/svg">
<g clip-path="url(#clip0_320_1321)">
<path d="M16.9173 14.9999V0.249914H19.7507V14.9999C19.7507 16.2597 19.2502 17.4679 18.3594 18.3587C17.4686 19.2495 16.2604 19.7499 15.0007 19.7499H13.334H13.084V19.9999V39.7499H10.2507V19.9999V19.7499H10.0007H8.33398C7.07421 19.7499 5.86603 19.2495 4.97523 18.3587C4.08443 17.4679 3.58398 16.2597 3.58398 14.9999V0.249914H6.41732V14.9999C6.41732 15.5082 6.61925 15.9958 6.9787 16.3552C7.33814 16.7146 7.82565 16.9166 8.33398 16.9166H10.0007H10.2507V16.6666V0.249914H13.084V16.6666V16.9166H13.334H15.0007C15.509 16.9166 15.9965 16.7146 16.3559 16.3552C16.7154 15.9958 16.9173 15.5082 16.9173 14.9999ZM28.1508 32.6081L28.084 32.6801V32.7783V39.7499H25.2507V3.33325C25.2506 2.6841 25.4555 2.05151 25.836 1.52561C26.2165 0.999708 26.7533 0.607318 27.3699 0.404351C27.9865 0.201384 28.6514 0.198196 29.2699 0.395239C29.8884 0.592283 30.429 0.979506 30.8145 1.50174L30.8152 1.50261C33.3848 4.95147 36.4173 10.1494 36.4173 15.4449C36.4173 19.2776 34.8269 23.0612 32.9877 26.1512C31.1506 29.2376 29.08 31.6078 28.1508 32.6081ZM28.084 27.5449V28.2751L28.5315 27.6981C31.8025 23.4812 33.4672 19.4799 33.4715 15.4546C33.4757 11.4291 31.8193 7.42131 28.5314 3.19149L28.084 2.61594V3.34491V27.5449Z" fill="#C19600" stroke="#F4F4F4" stroke-width="0.5"/>
</g>
<defs>
<clipPath id="clip0_320_1321">
<rect width="40" height="40" fill="white"/>
</clipPath>
</defs>
</svg>
