<svg width="23" height="22" viewBox="0 0 23 22" fill="none" xmlns="http://www.w3.org/2000/svg">
<path fill-rule="evenodd" clip-rule="evenodd" d="M15.616 6.5787C15.616 9.30081 13.4698 11.4574 10.8833 11.4574C8.29688 11.4574 6.15065 9.30081 6.15065 6.5787C6.15065 3.8566 8.29688 1.7 10.8833 1.7C13.4698 1.7 15.616 3.8566 15.616 6.5787ZM13.4929 12.0393C15.4611 11.05 16.816 8.97646 16.816 6.5787C16.816 3.22153 14.1599 0.5 10.8833 0.5C7.6068 0.5 4.95065 3.22153 4.95065 6.5787C4.95065 8.87233 6.19045 10.8693 8.02086 11.9043C7.58247 12.0177 7.15104 12.1572 6.72919 12.3225C5.41124 12.8388 4.21162 13.5964 3.19962 14.5536C2.18756 15.5108 1.38285 16.649 0.833166 17.9041C0.283439 19.1593 0 20.5059 0 21.8668H1.2C1.2 20.6731 1.44853 19.4903 1.93237 18.3855C2.41626 17.2806 3.12647 16.2745 4.0242 15.4254C4.92199 14.5763 5.98962 13.9011 7.16692 13.4398C8.34425 12.9786 9.60718 12.7408 10.8833 12.7408C12.2034 12.7408 12.8918 12.9662 13.2764 13.3604L14.1353 12.5224C13.9453 12.3277 13.7305 12.1685 13.4929 12.0393Z" fill="#C19600"/>
<path fill-rule="evenodd" clip-rule="evenodd" d="M18.7153 13.5288C18.7153 14.8154 17.7048 15.8084 16.5193 15.8084C15.3338 15.8084 14.3233 14.8154 14.3233 13.5288C14.3233 12.2421 15.3338 11.2492 16.5193 11.2492C17.7048 11.2492 18.7153 12.2421 18.7153 13.5288ZM18.1663 16.5725C19.2094 15.9786 19.9153 14.8382 19.9153 13.5288C19.9153 11.6071 18.3948 10.0492 16.5193 10.0492C14.6437 10.0492 13.1233 11.6071 13.1233 13.5288C13.1233 14.8403 13.8315 15.9824 14.8774 16.5754C14.6394 16.6298 14.4048 16.6961 14.1751 16.7741C13.4266 17.0283 12.7398 17.403 12.1562 17.8813C11.5725 18.3598 11.1016 18.9343 10.7774 19.5759C10.4528 20.2181 10.2832 20.9122 10.2832 21.6173H11.4832C11.4832 21.107 11.6056 20.5976 11.8484 20.1171C12.0916 19.6359 12.4523 19.1902 12.917 18.8094C13.3818 18.4284 13.9396 18.1214 14.5609 17.9104C15.1821 17.6995 15.8509 17.5901 16.5282 17.5901C17.2056 17.5901 17.8744 17.6995 18.4956 17.9104C19.1169 18.1214 19.6747 18.4284 20.1395 18.8094C20.6042 19.1902 20.9649 19.6359 21.2081 20.1171C21.4509 20.5977 21.5733 21.107 21.5733 21.6172H22.7733C22.7733 20.9122 22.6036 20.2181 22.2791 19.5759C21.9548 18.9343 21.484 18.3598 20.9002 17.8813C20.3167 17.403 19.6299 17.0283 18.8814 16.7741C18.6475 16.6947 18.4087 16.6275 18.1663 16.5725Z" fill="#C19600"/>
</svg>
