<svg width="29" height="29" viewBox="0 0 29 29" fill="none" xmlns="http://www.w3.org/2000/svg">
<path d="M25.6443 27.7825H15.5364C15.5364 27.7825 15.5364 27.4329 15.5364 27.0018C15.5364 26.5706 15.5364 26.2211 15.5364 26.2211H25.6444C26.04 26.2211 26.362 25.8992 26.362 25.5035V5.18195C26.362 4.78625 26.04 4.46431 25.6444 4.46431H3.35608C2.96045 4.46431 2.6385 4.78625 2.6385 5.18195V25.5035C2.6385 25.8992 2.96045 26.2211 3.35608 26.2211H11.2287C11.6598 26.2211 12.0094 26.5706 12.0094 27.0018C12.0094 27.4329 11.6598 27.7825 11.2287 27.7825H3.35608C2.09946 27.7825 1.07715 26.7601 1.07715 25.5035V5.18195C1.07715 3.92532 2.09951 2.90295 3.35608 2.90295H25.6443C26.901 2.90295 27.9233 3.92532 27.9233 5.18195V25.5035C27.9233 26.7602 26.901 27.7825 25.6443 27.7825Z" fill="#C19600"/>
<path d="M24.8232 18.9096L20.7334 18.9095C20.7334 18.9095 20.7334 18.56 20.7334 18.1289C20.7334 17.6977 20.7334 17.3482 20.7334 17.3482H24.8232C24.8232 17.3482 24.8232 17.6977 24.8232 18.1289C24.8232 18.5601 24.8232 18.9096 24.8232 18.9096Z" fill="#C19600"/>
<path d="M24.8232 14.5316H20.7334C20.7334 14.5316 20.7334 14.1821 20.7334 13.751C20.7334 13.3198 20.7334 12.9703 20.7334 12.9703H24.8232V13.751V14.5316Z" fill="#C19600"/>
<path d="M24.8223 23.2875H20.7324C20.7324 23.2875 20.7324 22.938 20.7324 22.5068C20.7324 22.0757 20.7324 21.7261 20.7324 21.7261H24.8223C24.8223 21.7261 24.8223 22.0757 24.8223 22.5068C24.8223 22.938 24.8223 23.2875 24.8223 23.2875Z" fill="#C19600"/>
<path d="M19.3848 18.9096L15.2949 18.9095C15.2949 18.9095 15.2949 18.56 15.2949 18.1289C15.2949 17.6977 15.295 17.3482 15.295 17.3482H19.3848C19.3848 17.3482 19.3848 17.6977 19.3848 18.1289C19.3848 18.5601 19.3848 18.9096 19.3848 18.9096Z" fill="#C19600"/>
<path d="M19.3848 14.5316H15.2949C15.2949 14.5316 15.2949 14.1821 15.2949 13.751C15.2949 13.3198 15.295 12.9703 15.295 12.9703H19.3848V13.751V14.5316Z" fill="#C19600"/>
<path d="M19.3848 23.2876H15.2949C15.2949 23.2876 15.2949 22.938 15.2949 22.5069C15.2949 22.0757 15.2949 21.7262 15.2949 21.7262H19.3848C19.3848 21.7262 19.3848 22.0757 19.3848 22.5069C19.3848 22.938 19.3848 23.2876 19.3848 23.2876Z" fill="#C19600"/>
<path d="M10.432 28.2193H7.24809C6.29132 28.2193 5.51562 27.4436 5.51562 26.4868V2.51311C5.51562 1.55633 6.29132 0.78064 7.24809 0.78064H10.432C11.3888 0.78064 12.1645 1.55633 12.1645 2.51311V26.4868C12.1645 27.4437 11.3888 28.2193 10.432 28.2193Z" fill="#F4F4F4"/>
<path d="M10.4323 29H7.24844C5.86267 29 4.73535 27.8726 4.73535 26.4869V2.51309C4.73529 1.12738 5.86273 0 7.24844 0H10.4323C11.8181 0 12.9454 1.12738 12.9454 2.51309V26.4868C12.9454 27.8726 11.8181 29 10.4323 29ZM7.24844 1.5613C6.72361 1.5613 6.29665 1.98826 6.29665 2.51309V26.4868C6.29665 27.0116 6.72366 27.4386 7.24844 27.4386H10.4323C10.9572 27.4386 11.3841 27.0116 11.3841 26.4868V2.51309C11.3841 1.98826 10.9571 1.5613 10.4323 1.5613H7.24844Z" fill="#C19600"/>
<path d="M22.111 10.2079H17.9652C17.1463 10.2079 16.4824 9.54402 16.4824 8.72517C16.4824 7.90626 17.1463 7.24243 17.9652 7.24243H22.111C22.9299 7.24243 23.5938 7.90632 23.5938 8.72517C23.5938 9.54408 22.9299 10.2079 22.111 10.2079Z" fill="white"/>
<path d="M24.3747 10.9886H15.7021C15.7021 10.9886 15.7022 9.97323 15.7022 8.72521C15.7022 7.47719 15.7022 6.46185 15.7022 6.46185H24.3747C24.3747 6.46185 24.3747 7.47719 24.3747 8.72521C24.3747 9.97323 24.3747 10.9886 24.3747 10.9886ZM17.2635 8.02309C17.2635 8.02309 17.2635 8.33802 17.2635 8.72515C17.2635 9.11229 17.2635 9.42721 17.2635 9.42721H22.8134C22.8134 9.42721 22.8134 9.11229 22.8134 8.72515C22.8134 8.33802 22.8134 8.02309 22.8134 8.02309H17.2635Z" fill="#C19600"/>
</svg>
