<svg width="22" height="20" viewBox="0 0 22 20" fill="none" xmlns="http://www.w3.org/2000/svg">
<path d="M18.7773 0H3.22266C1.44583 0 0 1.31439 0 2.92969V17.0703C0 18.6855 1.44583 20 3.22266 20H18.7773C20.5541 20 22 18.6855 22 17.0703V2.92969C22 1.31439 20.5541 0 18.7773 0ZM11.043 15.2344C7.84432 15.2344 5.24219 12.8688 5.24219 9.96094C5.24219 7.05308 7.84432 4.68751 11.043 4.68751C14.2416 4.68751 16.8437 7.05308 16.8437 9.96094C16.8437 12.8688 14.2416 15.2344 11.043 15.2344ZM17.4883 5.85937C16.4221 5.85937 15.5547 5.0708 15.5547 4.10157C15.5547 3.13232 16.4221 2.34375 17.4883 2.34375C18.5545 2.34375 19.4219 3.13232 19.4219 4.10157C19.4219 5.0708 18.5545 5.85937 17.4883 5.85937Z" fill="#8C1F2F"/>
</svg>
