<svg width="32" height="23" viewBox="0 0 32 23" fill="none" xmlns="http://www.w3.org/2000/svg">
<path d="M31 14.5666C31 14.95 30.8 15.525 30.8 15.9083C29.2 21.275 22.6 23 18.2 19.3583C18.2 19.3583 18 19.3583 18 19.1666C17.8 19.55 17.6 20.125 17.4 20.5083C17.2 20.8916 17 21.275 16.4 21.275C15.8 21.275 15.6 20.8916 15.4 20.5083C15.2 20.125 15 19.7416 14.6 19.1666L14.4 19.3583C12.2 21.275 9.59999 21.6583 6.79999 20.7C3.99999 19.7416 2.39999 17.825 1.79999 14.95C1.59999 13.6083 1.79999 12.2666 1.99999 10.925C2.19999 10.35 2.39999 9.77495 2.39999 9.19995C2.39999 9.00828 2.39999 9.00829 2.39999 8.81662C2.19999 8.43328 1.99999 8.04995 1.79999 7.66662C1.39999 7.09162 1.79998 6.32495 2.59998 6.32495C4.79998 6.32495 6.99998 6.32495 9.19998 6.32495C12.2 6.32495 14.4 7.66662 16 10.1583C16 10.1583 16 10.35 16.2 10.35C16.2 10.35 16.2 10.1583 16.4 10.1583C18 7.66662 20.2 6.51662 23.2 6.32495C25.4 6.32495 27.6 6.32495 29.8 6.32495C30.4 6.32495 30.6 6.51662 30.8 6.89995C30.8 7.09162 30.8 7.28328 30.8 7.28328C30.6 7.85828 30.2 8.24162 30 8.81662C30 8.81662 30 9.00828 30 9.19995C30.2 9.96662 30.4 10.7333 30.6 11.5C30.8 12.075 30.8 12.4583 30.8 13.0333C31 13.8 31 14.1833 31 14.5666ZM23.2 18.2083C25.6 18.2083 27.4 16.2916 27.4 14.1833C27.4 11.8833 25.4 10.1583 23.2 10.1583C20.8 10.1583 19 12.075 19 14.1833C19 16.2916 21 18.2083 23.2 18.2083ZM9.59998 9.96662C7.19998 9.96662 5.39999 11.8833 5.39999 13.9916C5.39999 16.2916 7.39998 18.0166 9.59998 18.0166C12 18.0166 13.8 16.1 13.8 13.9916C13.8 11.6916 11.8 9.96662 9.59998 9.96662ZM16.4 17.4416C16 18.0166 16 18.2083 16.4 18.5916C16.8 18.2083 16.8 18.0166 16.4 17.4416Z" fill="#8C1F2F"/>
<path d="M26.5997 4.98331C25.5997 4.98331 24.5997 4.98331 23.5997 4.98331C20.7997 4.98331 18.3997 5.94164 16.5997 7.66664C16.5997 7.66664 16.5997 7.66664 16.3997 7.66664L16.1997 7.47497C14.1997 5.74997 11.9997 4.79164 9.39971 4.79164C8.39971 4.79164 7.59971 4.79164 6.59971 4.79164C6.59971 4.79164 6.39971 4.79164 6.19971 4.79164C11.3997 0.766642 20.7997 0.574976 26.5997 4.98331Z" fill="#8C1F2F"/>
<path d="M23.4003 11.5C24.8003 11.5 26.0003 12.65 26.0003 13.9917C26.0003 15.3333 24.8003 16.4833 23.4003 16.4833C22.0003 16.4833 20.8003 15.3333 20.8003 13.9917C20.8003 12.65 22.0003 11.5 23.4003 11.5ZM24.2003 13.9917C24.2003 13.6083 23.8003 13.225 23.4003 13.225C23.0003 13.225 22.6003 13.6083 22.6003 13.9917C22.6003 14.375 23.0003 14.7583 23.4003 14.7583C23.8003 14.95 24.2003 14.5667 24.2003 13.9917Z" fill="#8C1F2F"/>
<path d="M9.6 16.4833C8.2 16.4833 7 15.3333 7 13.9917C7 12.65 8.2 11.5 9.6 11.5C11 11.5 12.2 12.65 12.2 13.9917C12 15.3333 11 16.4833 9.6 16.4833ZM10.4 13.9917C10.4 13.6083 10 13.225 9.6 13.225C9.2 13.225 8.8 13.6083 8.8 13.9917C8.8 14.375 9.2 14.7583 9.6 14.7583C10 14.95 10.4 14.5667 10.4 13.9917Z" fill="#8C1F2F"/>
</svg>
